<?xml version="1.0" encoding="UTF-8"?>
<svg width="120" height="40" viewBox="0 0 120 40" fill="none" xmlns="http://www.w3.org/2000/svg">
  <path d="M20 10C14.4772 10 10 14.4772 10 20C10 25.5228 14.4772 30 20 30C25.5228 30 30 25.5228 30 20C30 14.4772 25.5228 10 20 10Z" fill="#8BC34A"/>
  <path d="M40 10H35V30H40V10Z" fill="#333333"/>
  <path d="M50 10C44.4772 10 40 14.4772 40 20C40 25.5228 44.4772 30 50 30C55.5228 30 60 25.5228 60 20C60 14.4772 55.5228 10 50 10Z" fill="#8BC34A"/>
  <path d="M50 15C47.2386 15 45 17.2386 45 20C45 22.7614 47.2386 25 50 25C52.7614 25 55 22.7614 55 20C55 17.2386 52.7614 15 50 15Z" fill="white"/>
  <path d="M70 10H65V30H70V22.5H80V30H85V10H80V17.5H70V10Z" fill="#333333"/>
</svg>
